<svg width="324" height="151" viewBox="0 0 324 151" fill="none" xmlns="http://www.w3.org/2000/svg">
<path d="M85.47 29.1593L83.063 28.5009L79.2372 46.5731L76.0881 50.6324L82.2128 27.3215L85.47 29.1593Z" fill="#746C6C"/>
<path d="M120.367 28.3399L111.449 33.3226L82.2553 24.5831L73.2461 54.6701L64.4158 59.605L80.956 21.7264L120.367 28.3399Z" fill="#151414"/>
<rect width="4.24623" height="4.15003" transform="matrix(-0.89496 0.446147 0.446147 0.89496 89.3568 38.6202)" fill="black"/>
<rect width="4.08336" height="4.30669" transform="matrix(-0.89496 0.446147 0.446147 0.89496 86.7548 33.5264)" fill="black"/>
<rect width="4.12837" height="4.23858" transform="matrix(-0.89496 0.446147 0.446147 0.89496 91.7263 31.036)" fill="black"/>
<rect width="4.23243" height="4.24623" transform="matrix(-0.89496 0.446147 0.446147 0.89496 94.3273 36.0727)" fill="black"/>
<rect width="4.4169" height="4.66753" transform="matrix(-0.999902 -0.0140134 -0.0140134 0.999902 198.482 30.5062)" fill="black"/>
<rect width="4.24749" height="4.84371" transform="matrix(-0.999902 -0.0140134 -0.0140134 0.999902 198.514 24.0731)" fill="black"/>
<rect width="4.29431" height="4.76711" transform="matrix(-0.999902 -0.0140134 -0.0140134 0.999902 204.298 24.1421)" fill="black"/>
<rect width="4.40256" height="4.77571" transform="matrix(-0.999902 -0.0140134 -0.0140134 0.999902 204.292 30.5175)" fill="black"/>
<path d="M241.627 44.0052L236.619 44.6444L199.908 10.6767L180.882 30.8391L163.588 21.7786L201.262 4.56027L241.627 44.0052Z" fill="black"/>
<path d="M200.04 15.4345L194.117 20.3039L199.929 13.7L227.226 37.7214L200.04 15.4345Z" fill="#938989"/>
<path d="M137.041 54.0007C184.155 54.0007 224.476 53.7366 241.036 63.737C224.276 56.1756 190.11 56.4997 147 56.4997C85.1217 56.4997 32.0006 74.5567 32 97.4997C32 108.024 41.7653 117.702 58.3086 125.097C37.7442 117.566 25 107.107 25 95.5427C25.0002 72.5996 75.1626 54.0007 137.041 54.0007Z" fill="#090909"/>
<path fill-rule="evenodd" clip-rule="evenodd" d="M143.735 58.0007C172.057 58.0007 197.699 57.9029 216.263 60.2487C194.572 58.6363 166.322 59.2751 138.536 59.2751C92.577 59.2751 56.3962 70.4507 44 85.0905C54.846 69.5486 95.3839 58.0007 143.735 58.0007Z" fill="#A6A0A0"/>
<path d="M110.658 80.1797H109.12C108.832 79.0996 108.231 77.9443 107.315 76.7139C106.412 75.4834 105.544 74.8066 104.71 74.6836C104.287 74.6289 103.781 74.5879 103.193 74.5605C102.619 74.5332 101.962 74.5195 101.224 74.5195H96.3432V86.209H99.6859C100.698 86.209 101.484 86.1064 102.044 85.9014C102.605 85.6826 103.083 85.3545 103.48 84.917C103.753 84.6162 103.999 84.1514 104.218 83.5225C104.451 82.8799 104.601 82.1963 104.669 81.4717H106.228V92.8945H104.669C104.628 92.293 104.485 91.6094 104.239 90.8438C104.006 90.0781 103.753 89.5244 103.48 89.1826C103.07 88.6768 102.55 88.335 101.921 88.1572C101.306 87.9658 100.561 87.8701 99.6859 87.8701H96.3432V97.8984C96.3432 98.3496 96.432 98.7529 96.6098 99.1084C96.7875 99.4639 97.102 99.751 97.5531 99.9697C97.7582 100.065 98.2025 100.182 98.8861 100.318C99.5697 100.455 100.089 100.53 100.445 100.544V102H87.8324V100.544C88.2426 100.517 88.7895 100.476 89.473 100.421C90.1566 100.353 90.601 100.271 90.8061 100.175C91.2162 99.9971 91.5102 99.7373 91.6879 99.3955C91.8793 99.04 91.975 98.6162 91.975 98.124V77.124C91.975 76.6729 91.8998 76.2764 91.7494 75.9346C91.599 75.5791 91.2846 75.292 90.8061 75.0732C90.4369 74.8955 89.9379 74.7383 89.309 74.6016C88.6937 74.4648 88.2016 74.3828 87.8324 74.3555V72.8994H110.658V80.1797ZM141.928 93.4277L141.374 102H117.216V100.544C117.626 100.517 118.173 100.462 118.857 100.38C119.54 100.284 119.985 100.188 120.19 100.093C120.627 99.8877 120.928 99.6211 121.092 99.293C121.27 98.9648 121.359 98.5479 121.359 98.042V77.124C121.359 76.6729 121.283 76.2764 121.133 75.9346C120.983 75.5791 120.668 75.292 120.19 75.0732C119.821 74.8955 119.321 74.7383 118.693 74.6016C118.077 74.4648 117.585 74.3828 117.216 74.3555V72.8994H139.734V79.9131H138.196C137.922 78.874 137.327 77.7734 136.411 76.6113C135.509 75.4355 134.648 74.793 133.827 74.6836C133.404 74.6289 132.898 74.5879 132.31 74.5605C131.722 74.5332 131.052 74.5195 130.3 74.5195H125.727V86.0859H129.008C130.061 86.0859 130.826 85.9902 131.305 85.7988C131.797 85.5938 132.228 85.2588 132.597 84.7939C132.898 84.3975 133.151 83.8711 133.356 83.2148C133.574 82.5449 133.718 81.916 133.786 81.3281H135.324V92.71H133.786C133.732 92.0537 133.581 91.3633 133.335 90.6387C133.103 89.9004 132.857 89.3672 132.597 89.0391C132.173 88.5059 131.688 88.1572 131.141 87.9932C130.608 87.8291 129.897 87.7471 129.008 87.7471H125.727V96.4834C125.727 97.3584 125.788 98.0488 125.911 98.5547C126.034 99.0605 126.274 99.4434 126.629 99.7031C126.985 99.9629 127.47 100.134 128.085 100.216C128.7 100.284 129.575 100.318 130.71 100.318C131.161 100.318 131.756 100.318 132.494 100.318C133.233 100.318 133.855 100.291 134.361 100.236C134.88 100.182 135.413 100.086 135.96 99.9492C136.521 99.7988 136.917 99.6006 137.15 99.3545C137.779 98.6982 138.435 97.707 139.118 96.3809C139.816 95.041 140.26 94.0566 140.451 93.4277H141.928ZM177.443 102H169.609C167.873 99.2793 166.301 96.9277 164.893 94.9453C163.498 92.9629 161.98 90.9189 160.34 88.8135H157.366V98.042C157.366 98.5205 157.441 98.9443 157.592 99.3135C157.742 99.6689 158.063 99.9424 158.556 100.134C158.802 100.229 159.232 100.318 159.848 100.4C160.463 100.482 160.982 100.53 161.406 100.544V102H149.102V100.544C149.43 100.517 149.901 100.469 150.517 100.4C151.146 100.332 151.583 100.243 151.829 100.134C152.239 99.9561 152.533 99.6963 152.711 99.3545C152.902 99.0127 152.998 98.5752 152.998 98.042V77.001C152.998 76.5225 152.93 76.0986 152.793 75.7295C152.656 75.3604 152.335 75.0801 151.829 74.8887C151.487 74.7656 151.043 74.6562 150.496 74.5605C149.949 74.4512 149.484 74.3828 149.102 74.3555V72.8994H162.534C163.765 72.8994 164.92 73.0293 166 73.2891C167.08 73.5352 168.058 73.9385 168.933 74.499C169.78 75.0459 170.457 75.7637 170.963 76.6523C171.469 77.5273 171.722 78.5869 171.722 79.8311C171.722 80.9521 171.551 81.9434 171.209 82.8047C170.867 83.666 170.361 84.4111 169.691 85.04C169.076 85.6279 168.338 86.1406 167.477 86.5781C166.615 87.002 165.665 87.3643 164.626 87.665C166.062 89.5654 167.251 91.165 168.194 92.4639C169.151 93.7627 170.32 95.3418 171.701 97.2012C172.303 98.0215 172.843 98.6299 173.321 99.0264C173.813 99.4092 174.299 99.7236 174.777 99.9697C175.133 100.147 175.577 100.284 176.11 100.38C176.644 100.476 177.088 100.53 177.443 100.544V102ZM166.656 80.3027C166.656 78.5391 166.15 77.1445 165.139 76.1191C164.127 75.0801 162.698 74.5605 160.853 74.5605H157.366V87.0498H160.053C161.939 87.0498 163.512 86.4482 164.77 85.2451C166.027 84.0283 166.656 82.3809 166.656 80.3027ZM200.9 88.6494C201.515 89.333 201.967 90.085 202.254 90.9053C202.554 91.7119 202.705 92.6553 202.705 93.7354C202.705 96.3057 201.755 98.4248 199.854 100.093C197.954 101.761 195.596 102.595 192.779 102.595C191.48 102.595 190.181 102.396 188.883 102C187.584 101.59 186.463 101.098 185.519 100.523L184.637 102.021H182.997L182.71 92.0537H184.371C184.713 93.2842 185.109 94.3984 185.56 95.3965C186.025 96.3809 186.634 97.3037 187.386 98.165C188.096 98.9717 188.924 99.6143 189.867 100.093C190.824 100.571 191.931 100.811 193.189 100.811C194.133 100.811 194.953 100.688 195.65 100.441C196.361 100.195 196.935 99.8467 197.373 99.3955C197.81 98.9443 198.132 98.418 198.337 97.8164C198.555 97.2012 198.665 96.4971 198.665 95.7041C198.665 94.542 198.337 93.4619 197.68 92.4639C197.024 91.4521 196.047 90.6865 194.748 90.167C193.859 89.8115 192.841 89.4219 191.692 88.998C190.544 88.5605 189.553 88.1504 188.719 87.7676C187.078 87.0293 185.8 86.0654 184.884 84.876C183.981 83.6729 183.53 82.1074 183.53 80.1797C183.53 79.0723 183.756 78.04 184.207 77.083C184.658 76.126 185.301 75.2715 186.135 74.5195C186.928 73.8086 187.864 73.2549 188.944 72.8584C190.024 72.4482 191.152 72.2432 192.328 72.2432C193.668 72.2432 194.864 72.4482 195.917 72.8584C196.983 73.2686 197.954 73.7471 198.829 74.2939L199.67 72.8994H201.31L201.474 82.5586H199.813C199.512 81.4512 199.171 80.3916 198.788 79.3799C198.419 78.3682 197.933 77.4521 197.332 76.6318C196.744 75.8389 196.026 75.21 195.179 74.7451C194.331 74.2666 193.292 74.0273 192.061 74.0273C190.762 74.0273 189.655 74.4443 188.739 75.2783C187.823 76.1123 187.365 77.1309 187.365 78.334C187.365 79.5918 187.659 80.6377 188.247 81.4717C188.835 82.292 189.689 82.9688 190.81 83.502C191.808 83.9805 192.786 84.3975 193.743 84.7529C194.714 85.0947 195.65 85.4639 196.553 85.8604C197.373 86.2158 198.159 86.6191 198.911 87.0703C199.677 87.5215 200.34 88.0479 200.9 88.6494ZM223.291 102H210.186V100.544C210.555 100.517 211.088 100.476 211.786 100.421C212.483 100.366 212.975 100.284 213.262 100.175C213.713 99.9971 214.042 99.7578 214.247 99.457C214.452 99.1426 214.554 98.7119 214.554 98.165V77.083C214.554 76.6045 214.479 76.208 214.329 75.8936C214.178 75.5654 213.823 75.292 213.262 75.0732C212.852 74.9092 212.333 74.7588 211.704 74.6221C211.088 74.4717 210.583 74.3828 210.186 74.3555V72.8994H223.291V74.3555C222.867 74.3691 222.361 74.4238 221.773 74.5195C221.185 74.6016 220.672 74.7109 220.235 74.8477C219.715 75.0117 219.367 75.2783 219.189 75.6475C219.011 76.0166 218.922 76.4268 218.922 76.8779V97.9395C218.922 98.3906 219.018 98.7939 219.21 99.1494C219.415 99.4912 219.756 99.7646 220.235 99.9697C220.522 100.079 220.987 100.202 221.629 100.339C222.286 100.462 222.839 100.53 223.291 100.544V102Z" fill="black"/>
<path d="M62.5859 128V116.547H64.1016V121.25H70.0547V116.547H71.5703V128H70.0547V122.602H64.1016V128H62.5859ZM77.6406 122.422C77.6406 120.521 78.151 119.034 79.1719 117.961C80.1927 116.883 81.5104 116.344 83.125 116.344C84.1823 116.344 85.1354 116.596 85.9844 117.102C86.8333 117.607 87.4792 118.312 87.9219 119.219C88.3698 120.12 88.5938 121.143 88.5938 122.289C88.5938 123.451 88.3594 124.49 87.8906 125.406C87.4219 126.323 86.7578 127.018 85.8984 127.492C85.0391 127.961 84.112 128.195 83.1172 128.195C82.0391 128.195 81.0755 127.935 80.2266 127.414C79.3776 126.893 78.7344 126.182 78.2969 125.281C77.8594 124.38 77.6406 123.427 77.6406 122.422ZM79.2031 122.445C79.2031 123.826 79.5729 124.914 80.3125 125.711C81.0573 126.503 81.9896 126.898 83.1094 126.898C84.25 126.898 85.1875 126.497 85.9219 125.695C86.6615 124.893 87.0312 123.755 87.0312 122.281C87.0312 121.349 86.8724 120.536 86.5547 119.844C86.2422 119.146 85.7812 118.607 85.1719 118.227C84.5677 117.841 83.888 117.648 83.1328 117.648C82.0599 117.648 81.1354 118.018 80.3594 118.758C79.5885 119.492 79.2031 120.721 79.2031 122.445ZM94.5078 128V116.547H96.7891L99.5 124.656C99.75 125.411 99.9323 125.977 100.047 126.352C100.177 125.935 100.38 125.323 100.656 124.516L103.398 116.547H105.438V128H103.977V118.414L100.648 128H99.2812L95.9688 118.25V128H94.5078ZM111.914 128V116.547H120.195V117.898H113.43V121.406H119.766V122.75H113.43V126.648H120.461V128H111.914ZM135.266 128V116.547H136.781V128H135.266ZM143.414 128V116.547H145.695L148.406 124.656C148.656 125.411 148.839 125.977 148.953 126.352C149.083 125.935 149.286 125.323 149.562 124.516L152.305 116.547H154.344V128H152.883V118.414L149.555 128H148.188L144.875 118.25V128H143.414ZM160.789 128V116.547H165.109C165.87 116.547 166.451 116.583 166.852 116.656C167.414 116.75 167.885 116.93 168.266 117.195C168.646 117.456 168.951 117.823 169.18 118.297C169.414 118.771 169.531 119.292 169.531 119.859C169.531 120.833 169.221 121.659 168.602 122.336C167.982 123.008 166.862 123.344 165.242 123.344H162.305V128H160.789ZM162.305 121.992H165.266C166.245 121.992 166.94 121.81 167.352 121.445C167.763 121.081 167.969 120.568 167.969 119.906C167.969 119.427 167.846 119.018 167.602 118.68C167.362 118.336 167.044 118.109 166.648 118C166.393 117.932 165.922 117.898 165.234 117.898H162.305V121.992ZM175.484 128V116.547H180.562C181.583 116.547 182.359 116.651 182.891 116.859C183.422 117.062 183.846 117.424 184.164 117.945C184.482 118.466 184.641 119.042 184.641 119.672C184.641 120.484 184.378 121.169 183.852 121.727C183.326 122.284 182.513 122.638 181.414 122.789C181.815 122.982 182.12 123.172 182.328 123.359C182.771 123.766 183.19 124.273 183.586 124.883L185.578 128H183.672L182.156 125.617C181.714 124.93 181.349 124.404 181.062 124.039C180.776 123.674 180.518 123.419 180.289 123.273C180.065 123.128 179.836 123.026 179.602 122.969C179.43 122.932 179.148 122.914 178.758 122.914H177V128H175.484ZM177 121.602H180.258C180.951 121.602 181.492 121.531 181.883 121.391C182.273 121.245 182.57 121.016 182.773 120.703C182.977 120.385 183.078 120.042 183.078 119.672C183.078 119.13 182.88 118.685 182.484 118.336C182.094 117.987 181.474 117.812 180.625 117.812H177V121.602ZM190.562 122.422C190.562 120.521 191.073 119.034 192.094 117.961C193.115 116.883 194.432 116.344 196.047 116.344C197.104 116.344 198.057 116.596 198.906 117.102C199.755 117.607 200.401 118.312 200.844 119.219C201.292 120.12 201.516 121.143 201.516 122.289C201.516 123.451 201.281 124.49 200.812 125.406C200.344 126.323 199.68 127.018 198.82 127.492C197.961 127.961 197.034 128.195 196.039 128.195C194.961 128.195 193.997 127.935 193.148 127.414C192.299 126.893 191.656 126.182 191.219 125.281C190.781 124.38 190.562 123.427 190.562 122.422ZM192.125 122.445C192.125 123.826 192.495 124.914 193.234 125.711C193.979 126.503 194.911 126.898 196.031 126.898C197.172 126.898 198.109 126.497 198.844 125.695C199.583 124.893 199.953 123.755 199.953 122.281C199.953 121.349 199.794 120.536 199.477 119.844C199.164 119.146 198.703 118.607 198.094 118.227C197.49 117.841 196.81 117.648 196.055 117.648C194.982 117.648 194.057 118.018 193.281 118.758C192.51 119.492 192.125 120.721 192.125 122.445ZM210.75 128L206.312 116.547H207.953L210.93 124.867C211.169 125.534 211.37 126.159 211.531 126.742C211.708 126.117 211.914 125.492 212.148 124.867L215.242 116.547H216.789L212.305 128H210.75ZM222.18 128V116.547H230.461V117.898H223.695V121.406H230.031V122.75H223.695V126.648H230.727V128H222.18ZM236.773 128V116.547H239.055L241.766 124.656C242.016 125.411 242.198 125.977 242.312 126.352C242.443 125.935 242.646 125.323 242.922 124.516L245.664 116.547H247.703V128H246.242V118.414L242.914 128H241.547L238.234 118.25V128H236.773ZM257.062 128V117.898H253.289V116.547H262.367V117.898H258.578V128H257.062Z" fill="black"/>
<path d="M209 50H205.243L147 28.7256L88.7568 50H85L147 15L209 50Z" fill="black"/>
<path d="M115.57 42.4949L141.933 33.5403L142.754 40.0676L142.921 40.0004L142.921 32L115.57 42.4949Z" fill="#938989"/>
<rect x="144" y="26" width="5" height="18" fill="black"/>
<path d="M177.352 41.9948L150.988 33.0402L150.167 39.5676L150 39.5004L150 31.4999L177.352 41.9948Z" fill="#938989"/>
</svg>
