<svg width="111" height="63" viewBox="0 0 111 63" fill="none" xmlns="http://www.w3.org/2000/svg">
<path d="M29.2296 12.0249L28.7498 11.8916L27.2999 19.0583L25.9282 21.2677L28.3559 11.4509L29.2296 12.0249Z" fill="#746C6C"/>
<path d="M41.283 11.4526L38.2938 13.5358L28.4639 10.256L25.3245 22.5764L21.8962 24.9677L27.8612 9.3366L41.283 11.4526Z" fill="white"/>
<rect width="1.59146" height="1.58595" transform="matrix(-0.858891 0.552579 0.358996 0.920955 30.678 16.113)" fill="white"/>
<rect width="1.53448" height="1.65045" transform="matrix(-0.858841 0.552698 0.358917 0.921003 29.7874 13.9879)" fill="white"/>
<rect width="1.54993" height="1.62274" transform="matrix(-0.858856 0.552663 0.358941 0.920989 31.4902 12.9488)" fill="white"/>
<rect width="1.58773" height="1.62428" transform="matrix(-0.858871 0.552627 0.358965 0.920974 32.3818 15.0502)" fill="white"/>
<rect width="1.49965" height="1.93099" transform="matrix(-0.992731 0.0196996 -0.0241901 1.00646 67.9988 12.7019)" fill="white"/>
<rect width="1.44032" height="2.00416" transform="matrix(-0.992731 0.019727 -0.0241565 1.00646 68.0095 10.0189)" fill="white"/>
<rect width="1.45686" height="1.97237" transform="matrix(-0.992731 0.0197171 -0.0241686 1.00646 69.991 10.0474)" fill="white"/>
<rect width="1.49415" height="1.97584" transform="matrix(-0.992731 0.0197088 -0.0241788 1.00646 69.989 12.7067)" fill="white"/>
<path d="M82.7796 17.5191L80.8997 17.9152L80.0728 17.7147L68.7768 4.19342L62.2527 13.4001L61.9174 13.3195L56.0447 9.92698L69.3013 2.03448L82.7796 17.5191Z" fill="white"/>
<path d="M77.7997 15.6176L68.5702 6.44811L66.496 8.55465L68.5334 5.71631L77.7997 15.6176Z" fill="#938989"/>
<path d="M46.9495 22.5301C63.0929 22.5301 76.9078 22.421 82.5793 26.5955C76.8386 23.4391 65.1324 23.573 50.3606 23.573C29.1616 23.5731 10.9631 31.1072 10.9631 40.6795C10.9632 45.0717 14.3116 49.1092 19.9827 52.1951C12.9341 49.0527 8.56493 44.6891 8.5647 39.8631C8.5647 30.2907 25.7503 22.5301 46.9495 22.5301Z" fill="white"/>
<path d="M49.2429 24.1993C58.9729 24.1993 67.7795 24.1584 74.1433 25.1456C66.7051 24.4667 57.0037 24.7315 47.4617 24.7315C31.7125 24.7315 19.3169 29.3977 15.073 35.5079C18.7845 29.021 32.6738 24.1993 49.2429 24.1993Z" fill="#A6A0A0"/>
<path d="M37.258 32.4918H36.7087C36.6062 32.106 36.3913 31.6934 36.0642 31.254C35.7419 30.8145 35.4319 30.5728 35.134 30.5289C34.9826 30.5093 34.802 30.4947 34.592 30.4849C34.3869 30.4752 34.1526 30.4703 33.8889 30.4703H32.1457V34.6451H33.3396C33.7009 34.6451 33.9817 34.6085 34.1819 34.5352C34.3821 34.4571 34.553 34.3399 34.6946 34.1837C34.7922 34.0762 34.8801 33.9102 34.9582 33.6856C35.0412 33.4561 35.0949 33.212 35.1194 32.9532H35.676V37.0328H35.1194C35.1047 36.8179 35.0534 36.5738 34.9655 36.3004C34.8825 36.0269 34.7922 35.8292 34.6946 35.7071C34.5481 35.5264 34.3625 35.4044 34.1379 35.3409C33.9182 35.2725 33.6521 35.2383 33.3396 35.2383H32.1457V38.8199C32.1457 38.981 32.1775 39.1251 32.2409 39.252C32.3044 39.379 32.4167 39.4815 32.5779 39.5596C32.6511 39.5938 32.8098 39.6353 33.0539 39.6841C33.2981 39.733 33.4836 39.7598 33.6106 39.7647V40.2847H29.1062V39.7647C29.2527 39.7549 29.448 39.7403 29.6921 39.7208C29.9363 39.6964 30.0949 39.6671 30.1682 39.6329C30.3147 39.5694 30.4197 39.4766 30.4831 39.3546C30.5515 39.2276 30.5857 39.0762 30.5857 38.9005V31.4005C30.5857 31.2393 30.5588 31.0977 30.5051 30.9756C30.4514 30.8487 30.3391 30.7462 30.1682 30.668C30.0364 30.6046 29.8581 30.5484 29.6335 30.4996C29.4138 30.4507 29.238 30.4214 29.1062 30.4117V29.8917H37.258V32.4918ZM48.426 37.2232L48.2282 40.2847H39.6003V39.7647C39.7468 39.7549 39.9421 39.7354 40.1863 39.7061C40.4304 39.6719 40.5891 39.6378 40.6623 39.6036C40.8186 39.5303 40.926 39.4351 40.9846 39.3179C41.0481 39.2007 41.0798 39.0518 41.0798 38.8712V31.4005C41.0798 31.2393 41.053 31.0977 40.9992 30.9756C40.9455 30.8487 40.8332 30.7462 40.6623 30.668C40.5305 30.6046 40.3523 30.5484 40.1277 30.4996C39.9079 30.4507 39.7322 30.4214 39.6003 30.4117V29.8917H47.6423V32.3965H47.093C46.9953 32.0255 46.7829 31.6324 46.4558 31.2173C46.1335 30.7974 45.8259 30.5679 45.5329 30.5289C45.3816 30.5093 45.2009 30.4947 44.9909 30.4849C44.781 30.4752 44.5417 30.4703 44.2732 30.4703H42.6399V34.6011H43.8117C44.1877 34.6011 44.4612 34.567 44.6321 34.4986C44.8078 34.4254 44.9616 34.3057 45.0935 34.1397C45.2009 33.9981 45.2912 33.8101 45.3645 33.5757C45.4426 33.3365 45.4939 33.1119 45.5183 32.9019H46.0676V36.9669H45.5183C45.4988 36.7325 45.445 36.4859 45.3572 36.2271C45.2741 35.9634 45.1863 35.773 45.0935 35.6558C44.9421 35.4654 44.7688 35.3409 44.5735 35.2823C44.383 35.2237 44.1291 35.1944 43.8117 35.1944H42.6399V38.3145C42.6399 38.627 42.6618 38.8736 42.7058 39.0543C42.7497 39.2349 42.8352 39.3716 42.9621 39.4644C43.0891 39.5572 43.2624 39.6182 43.4822 39.6475C43.7019 39.6719 44.0144 39.6841 44.4197 39.6841C44.5808 39.6841 44.7932 39.6841 45.0569 39.6841C45.3205 39.6841 45.5427 39.6744 45.7234 39.6548C45.9089 39.6353 46.0993 39.6011 46.2947 39.5523C46.4948 39.4986 46.6364 39.4278 46.7195 39.3399C46.9441 39.1055 47.1784 38.7515 47.4226 38.2779C47.6716 37.7994 47.8303 37.4478 47.8987 37.2232H48.426ZM61.1101 40.2847H58.3122C57.6921 39.313 57.1306 38.4732 56.6277 37.7652C56.1296 37.0572 55.5876 36.3272 55.0017 35.5753H53.9397V38.8712C53.9397 39.0421 53.9665 39.1934 54.0202 39.3253C54.0739 39.4522 54.1887 39.5499 54.3645 39.6182C54.4524 39.6524 54.6062 39.6841 54.8259 39.7134C55.0456 39.7427 55.2312 39.7598 55.3825 39.7647V40.2847H50.988V39.7647C51.1052 39.7549 51.2737 39.7379 51.4934 39.7134C51.718 39.689 51.8742 39.6573 51.9621 39.6182C52.1086 39.5547 52.2136 39.462 52.2771 39.3399C52.3454 39.2178 52.3796 39.0616 52.3796 38.8712V31.3565C52.3796 31.1856 52.3552 31.0342 52.3064 30.9024C52.2575 30.7706 52.1428 30.6705 51.9621 30.6021C51.8401 30.5582 51.6814 30.5191 51.4861 30.4849C51.2907 30.4459 51.1247 30.4214 50.988 30.4117V29.8917H55.7854C56.2248 29.8917 56.6374 29.938 57.0232 30.0308C57.4089 30.1187 57.758 30.2628 58.0705 30.463C58.3733 30.6583 58.615 30.9146 58.7956 31.232C58.9763 31.5445 59.0666 31.9229 59.0666 32.3672C59.0666 32.7676 59.0056 33.1216 58.8835 33.4293C58.7614 33.7369 58.5808 34.003 58.3415 34.2276C58.1218 34.4376 57.8581 34.6207 57.5505 34.7769C57.2429 34.9283 56.9035 35.0577 56.5324 35.1651C57.0451 35.8438 57.4699 36.4151 57.8069 36.879C58.1487 37.3428 58.5661 37.9068 59.0593 38.5709C59.2741 38.8638 59.467 39.0811 59.6379 39.2227C59.8137 39.3594 59.987 39.4717 60.1579 39.5596C60.2849 39.6231 60.4436 39.6719 60.634 39.7061C60.8244 39.7403 60.9831 39.7598 61.1101 39.7647V40.2847ZM57.2575 32.5357C57.2575 31.9058 57.0769 31.4078 56.7155 31.0416C56.3542 30.6705 55.844 30.4849 55.1848 30.4849H53.9397V34.9454H54.8991C55.573 34.9454 56.1345 34.7305 56.5837 34.3008C57.0329 33.8663 57.2575 33.2779 57.2575 32.5357ZM69.4875 35.5167C69.7072 35.7608 69.8684 36.0294 69.9709 36.3223C70.0783 36.6104 70.1321 36.9473 70.1321 37.3331C70.1321 38.251 69.7927 39.0079 69.114 39.6036C68.4353 40.1993 67.593 40.4971 66.5871 40.4971C66.1233 40.4971 65.6594 40.4263 65.1955 40.2847C64.7317 40.1382 64.3313 39.9625 63.9944 39.7574L63.6794 40.2921H63.0935L62.9909 36.7325H63.5842C63.7063 37.1719 63.8479 37.5699 64.009 37.9263C64.175 38.2779 64.3923 38.6075 64.6609 38.9151C64.9148 39.2032 65.2102 39.4327 65.5471 39.6036C65.8889 39.7745 66.2844 39.8599 66.7336 39.8599C67.0705 39.8599 67.3635 39.816 67.6125 39.7281C67.8664 39.6402 68.0715 39.5157 68.2278 39.3546C68.384 39.1934 68.4988 39.0054 68.572 38.7906C68.6501 38.5709 68.6892 38.3194 68.6892 38.0362C68.6892 37.6212 68.572 37.2354 68.3376 36.879C68.1032 36.5176 67.7541 36.2442 67.2903 36.0587C66.9729 35.9317 66.6091 35.7925 66.1989 35.6412C65.7888 35.4849 65.4348 35.3384 65.1369 35.2017C64.551 34.938 64.0945 34.5938 63.7673 34.169C63.445 33.7393 63.2839 33.1802 63.2839 32.4918C63.2839 32.0963 63.3645 31.7276 63.5256 31.3858C63.6867 31.044 63.9162 30.7388 64.2141 30.4703C64.4973 30.2164 64.8318 30.0186 65.2175 29.877C65.6032 29.7305 66.0061 29.6573 66.426 29.6573C66.9045 29.6573 67.3318 29.7305 67.7077 29.877C68.0886 30.0235 68.4353 30.1944 68.7478 30.3897L69.0481 29.8917H69.634L69.6926 33.3414H69.0993C68.9919 32.9459 68.8698 32.5674 68.7331 32.2061C68.6013 31.8448 68.428 31.5176 68.2131 31.2247C68.0031 30.9415 67.7468 30.7169 67.4441 30.5508C67.1413 30.3799 66.7702 30.2945 66.3308 30.2945C65.8669 30.2945 65.4714 30.4434 65.1443 30.7413C64.8171 31.0391 64.6535 31.4029 64.6535 31.8326C64.6535 32.2818 64.7585 32.6553 64.9685 32.9532C65.1784 33.2462 65.4836 33.4879 65.884 33.6783C66.2405 33.8492 66.5896 33.9981 66.9314 34.1251C67.278 34.2471 67.6125 34.379 67.9348 34.5206C68.2278 34.6475 68.5085 34.7916 68.7771 34.9527C69.0505 35.1138 69.2873 35.3018 69.4875 35.5167ZM77.4841 40.2847H72.8039V39.7647C72.9358 39.7549 73.1262 39.7403 73.3752 39.7208C73.6242 39.7012 73.8 39.6719 73.9026 39.6329C74.0637 39.5694 74.1809 39.4839 74.2541 39.3765C74.3274 39.2642 74.364 39.1104 74.364 38.9151V31.3858C74.364 31.2149 74.3371 31.0733 74.2834 30.961C74.2297 30.8438 74.1028 30.7462 73.9026 30.668C73.7561 30.6094 73.5705 30.5557 73.3459 30.5069C73.1262 30.4532 72.9455 30.4214 72.8039 30.4117V29.8917H77.4841V30.4117C77.3327 30.4166 77.1521 30.4361 76.9421 30.4703C76.7322 30.4996 76.549 30.5386 76.3928 30.5875C76.2072 30.6461 76.0827 30.7413 76.0193 30.8731C75.9558 31.0049 75.924 31.1514 75.924 31.3126V38.8345C75.924 38.9957 75.9582 39.1397 76.0266 39.2667C76.0998 39.3887 76.2219 39.4864 76.3928 39.5596C76.4953 39.5987 76.6614 39.6426 76.8908 39.6915C77.1252 39.7354 77.323 39.7598 77.4841 39.7647V40.2847Z" fill="white"/>
<path d="M24.4331 52.1457V48.5666H24.9067V50.0363H26.7671V48.5666H27.2407V52.1457H26.7671V50.4587H24.9067V52.1457H24.4331ZM29.1377 50.4025C29.1377 49.8085 29.2972 49.3438 29.6162 49.0085C29.9352 48.6716 30.347 48.5031 30.8516 48.5031C31.182 48.5031 31.4798 48.5821 31.7451 48.7399C32.0104 48.8978 32.2122 49.1183 32.3506 49.4016C32.4906 49.6831 32.5605 50.003 32.5605 50.361C32.5605 50.724 32.4873 51.0487 32.3408 51.3351C32.1943 51.6216 31.9868 51.8389 31.7183 51.987C31.4497 52.1335 31.16 52.2067 30.8491 52.2067C30.5122 52.2067 30.2111 52.1253 29.9458 51.9626C29.6805 51.7998 29.4795 51.5777 29.3428 51.2961C29.2061 51.0145 29.1377 50.7167 29.1377 50.4025ZM29.626 50.4099C29.626 50.8412 29.7415 51.1813 29.9727 51.4304C30.2054 51.6778 30.4967 51.8015 30.8467 51.8015C31.2031 51.8015 31.4961 51.6761 31.7256 51.4255C31.9567 51.1748 32.0723 50.8192 32.0723 50.3586C32.0723 50.0672 32.0226 49.8133 31.9233 49.5969C31.8257 49.3788 31.6816 49.2103 31.4912 49.0915C31.3024 48.971 31.09 48.9108 30.854 48.9108C30.5187 48.9108 30.2298 49.0264 29.9873 49.2575C29.7464 49.487 29.626 49.8711 29.626 50.4099ZM34.4087 52.1457V48.5666H35.1216L35.9688 51.1008C36.0469 51.3368 36.1038 51.5134 36.1396 51.6306C36.1803 51.5003 36.2438 51.3091 36.3301 51.0568L37.187 48.5666H37.8242V52.1457H37.3677V49.1501L36.3276 52.1457H35.9004L34.8652 49.0988V52.1457H34.4087ZM39.8481 52.1457V48.5666H42.436V48.989H40.3218V50.0851H42.3018V50.5051H40.3218V51.7233H42.519V52.1457H39.8481ZM47.1455 52.1457V48.5666H47.6191V52.1457H47.1455ZM49.6919 52.1457V48.5666H50.4048L51.252 51.1008C51.3301 51.3368 51.387 51.5134 51.4229 51.6306C51.4635 51.5003 51.527 51.3091 51.6133 51.0568L52.4702 48.5666H53.1074V52.1457H52.6509V49.1501L51.6108 52.1457H51.1836L50.1484 49.0988V52.1457H49.6919ZM55.1216 52.1457V48.5666H56.4717C56.7093 48.5666 56.8908 48.578 57.0161 48.6008C57.1919 48.6301 57.3392 48.6862 57.458 48.7692C57.5768 48.8506 57.672 48.9654 57.7437 49.1135C57.8169 49.2616 57.8535 49.4243 57.8535 49.6017C57.8535 49.9061 57.7567 50.1641 57.563 50.3757C57.3693 50.5856 57.0194 50.6906 56.5132 50.6906H55.5952V52.1457H55.1216ZM55.5952 50.2682H56.5205C56.8265 50.2682 57.0438 50.2113 57.1724 50.0974C57.3009 49.9834 57.3652 49.8231 57.3652 49.6164C57.3652 49.4667 57.327 49.3389 57.2505 49.2331C57.1756 49.1257 57.0763 49.0549 56.9526 49.0207C56.8729 48.9995 56.7256 48.989 56.5107 48.989H55.5952V50.2682ZM59.7139 52.1457V48.5666H61.3008C61.6198 48.5666 61.8623 48.5991 62.0283 48.6642C62.1943 48.7277 62.327 48.8408 62.4263 49.0036C62.5256 49.1664 62.5752 49.3462 62.5752 49.5432C62.5752 49.7971 62.493 50.0111 62.3286 50.1852C62.1642 50.3594 61.9103 50.4701 61.5669 50.5173C61.6922 50.5775 61.7874 50.6369 61.8525 50.6955C61.9909 50.8224 62.1219 50.9811 62.2456 51.1716L62.8682 52.1457H62.2725L61.7988 51.4011C61.6605 51.1862 61.5465 51.0218 61.457 50.9079C61.3675 50.794 61.2869 50.7142 61.2153 50.6686C61.1453 50.6231 61.0737 50.5913 61.0005 50.5734C60.9468 50.562 60.8589 50.5563 60.7368 50.5563H60.1875V52.1457H59.7139ZM60.1875 50.1462H61.2056C61.422 50.1462 61.5913 50.1242 61.7134 50.0803C61.8354 50.0347 61.9282 49.9631 61.9917 49.8654C62.0552 49.7661 62.0869 49.6587 62.0869 49.5432C62.0869 49.3739 62.0251 49.2347 61.9014 49.1257C61.7793 49.0166 61.5856 48.9621 61.3203 48.9621H60.1875V50.1462ZM64.4258 50.4025C64.4258 49.8085 64.5853 49.3438 64.9043 49.0085C65.2233 48.6716 65.6351 48.5031 66.1396 48.5031C66.4701 48.5031 66.7679 48.5821 67.0332 48.7399C67.2985 48.8978 67.5003 49.1183 67.6387 49.4016C67.7786 49.6831 67.8486 50.003 67.8486 50.361C67.8486 50.724 67.7754 51.0487 67.6289 51.3351C67.4824 51.6216 67.2749 51.8389 67.0063 51.987C66.7378 52.1335 66.4481 52.2067 66.1372 52.2067C65.8003 52.2067 65.4992 52.1253 65.2339 51.9626C64.9686 51.7998 64.7676 51.5777 64.6309 51.2961C64.4941 51.0145 64.4258 50.7167 64.4258 50.4025ZM64.9141 50.4099C64.9141 50.8412 65.0296 51.1813 65.2607 51.4304C65.4935 51.6778 65.7848 51.8015 66.1348 51.8015C66.4912 51.8015 66.7842 51.6761 67.0137 51.4255C67.2448 51.1748 67.3604 50.8192 67.3604 50.3586C67.3604 50.0672 67.3107 49.8133 67.2114 49.5969C67.1138 49.3788 66.9697 49.2103 66.7793 49.0915C66.5905 48.971 66.3781 48.9108 66.1421 48.9108C65.8068 48.9108 65.5179 49.0264 65.2754 49.2575C65.0345 49.487 64.9141 49.8711 64.9141 50.4099ZM70.7344 52.1457L69.3477 48.5666H69.8604L70.7905 51.1667C70.8654 51.375 70.9281 51.5703 70.9785 51.7526C71.0339 51.5573 71.0981 51.362 71.1714 51.1667L72.1382 48.5666H72.6216L71.2202 52.1457H70.7344ZM74.3062 52.1457V48.5666H76.894V48.989H74.7798V50.0851H76.7598V50.5051H74.7798V51.7233H76.9771V52.1457H74.3062ZM78.8667 52.1457V48.5666H79.5796L80.4268 51.1008C80.5049 51.3368 80.5618 51.5134 80.5977 51.6306C80.6383 51.5003 80.7018 51.3091 80.7881 51.0568L81.645 48.5666H82.2822V52.1457H81.8257V49.1501L80.7856 52.1457H80.3584L79.3232 49.0988V52.1457H78.8667ZM85.207 52.1457V48.989H84.0278V48.5666H86.8647V48.989H85.6807V52.1457H85.207Z" fill="white"/>
<path d="M71.6018 20.8608H70.3137L50.3616 11.9849L30.4094 20.8608H29.1204L50.3616 6.2583L71.6018 20.8608Z" fill="white"/>
<path d="M37.1335 19.1123L48.8337 13.9934L48.9939 16.4434L49.0099 16.4353L49.127 13.3516L37.1335 19.1123Z" fill="#938989"/>
<rect x="49.3333" y="10.8477" width="1.71296" height="7.50993" fill="white"/>
<path d="M63.219 18.9037L51.5188 13.7848L51.3586 16.2348L51.3427 16.2266L51.2256 13.1429L63.219 18.9037Z" fill="#938989"/>
</svg>
